<mxfile host="app.diagrams.net" modified="2024-04-20T09:14:34.782Z" agent="Mozilla/5.0 (Windows NT 10.0; Win64; x64) AppleWebKit/537.36 (KHTML, like Gecko) Chrome/123.0.0.0 Safari/537.36" etag="THgazthgmvcPXqS2ZauQ" version="24.2.7" type="github">
  <diagram name="Pagina-1" id="PUrYo3mo1FTPI0XB6R7E">
    <mxGraphModel dx="1313" dy="1480" grid="1" gridSize="10" guides="1" tooltips="1" connect="1" arrows="1" fold="1" page="1" pageScale="1" pageWidth="1169" pageHeight="827" math="0" shadow="0">
      <root>
        <mxCell id="0" />
        <mxCell id="1" parent="0" />
        <mxCell id="nwxM2-n29xhYYMJKdfmu-1" value="" style="html=1;verticalAlign=bottom;labelBackgroundColor=none;endArrow=oval;endFill=0;endSize=8;rounded=0;exitX=0;exitY=0;exitDx=0;exitDy=0;exitPerimeter=0;" parent="1" source="nwxM2-n29xhYYMJKdfmu-26" edge="1">
          <mxGeometry width="160" relative="1" as="geometry">
            <mxPoint x="170" y="200" as="sourcePoint" />
            <mxPoint x="160" y="120" as="targetPoint" />
            <Array as="points" />
          </mxGeometry>
        </mxCell>
        <mxCell id="nwxM2-n29xhYYMJKdfmu-48" value="Registrazione" style="edgeLabel;html=1;align=center;verticalAlign=middle;resizable=0;points=[];" parent="nwxM2-n29xhYYMJKdfmu-1" vertex="1" connectable="0">
          <mxGeometry x="0.23" relative="1" as="geometry">
            <mxPoint as="offset" />
          </mxGeometry>
        </mxCell>
        <mxCell id="nwxM2-n29xhYYMJKdfmu-2" value="" style="html=1;verticalAlign=bottom;labelBackgroundColor=none;endArrow=oval;endFill=0;endSize=8;rounded=0;exitX=0.5;exitY=0;exitDx=0;exitDy=0;exitPerimeter=0;" parent="1" source="nwxM2-n29xhYYMJKdfmu-26" edge="1">
          <mxGeometry width="160" relative="1" as="geometry">
            <mxPoint x="245" y="200" as="sourcePoint" />
            <mxPoint x="240" y="120" as="targetPoint" />
          </mxGeometry>
        </mxCell>
        <mxCell id="nwxM2-n29xhYYMJKdfmu-49" value="Login" style="edgeLabel;html=1;align=center;verticalAlign=middle;resizable=0;points=[];" parent="nwxM2-n29xhYYMJKdfmu-2" vertex="1" connectable="0">
          <mxGeometry x="0.33" y="2" relative="1" as="geometry">
            <mxPoint x="2" y="3" as="offset" />
          </mxGeometry>
        </mxCell>
        <mxCell id="nwxM2-n29xhYYMJKdfmu-3" value="" style="html=1;verticalAlign=bottom;labelBackgroundColor=none;endArrow=oval;endFill=0;endSize=8;rounded=0;exitX=1;exitY=0;exitDx=0;exitDy=0;exitPerimeter=0;" parent="1" source="nwxM2-n29xhYYMJKdfmu-26" edge="1">
          <mxGeometry width="160" relative="1" as="geometry">
            <mxPoint x="370" y="200" as="sourcePoint" />
            <mxPoint x="320" y="120" as="targetPoint" />
          </mxGeometry>
        </mxCell>
        <mxCell id="nwxM2-n29xhYYMJKdfmu-50" value="Logout" style="edgeLabel;html=1;align=center;verticalAlign=middle;resizable=0;points=[];" parent="nwxM2-n29xhYYMJKdfmu-3" vertex="1" connectable="0">
          <mxGeometry x="0.105" y="-3" relative="1" as="geometry">
            <mxPoint x="-3" y="-6" as="offset" />
          </mxGeometry>
        </mxCell>
        <mxCell id="nwxM2-n29xhYYMJKdfmu-20" value="" style="html=1;verticalAlign=bottom;labelBackgroundColor=none;endArrow=oval;endFill=0;endSize=8;rounded=0;exitX=1;exitY=1;exitDx=0;exitDy=0;exitPerimeter=0;" parent="1" source="nwxM2-n29xhYYMJKdfmu-26" edge="1">
          <mxGeometry x="0.25" width="160" relative="1" as="geometry">
            <mxPoint x="320" y="275" as="sourcePoint" />
            <mxPoint x="320" y="360" as="targetPoint" />
            <Array as="points" />
            <mxPoint as="offset" />
          </mxGeometry>
        </mxCell>
        <mxCell id="nwxM2-n29xhYYMJKdfmu-45" value="Visualizzazione&lt;div&gt;dati&lt;/div&gt;" style="edgeLabel;html=1;align=center;verticalAlign=middle;resizable=0;points=[];" parent="nwxM2-n29xhYYMJKdfmu-20" vertex="1" connectable="0">
          <mxGeometry x="-0.405" y="-3" relative="1" as="geometry">
            <mxPoint y="16" as="offset" />
          </mxGeometry>
        </mxCell>
        <mxCell id="nwxM2-n29xhYYMJKdfmu-21" value="" style="html=1;verticalAlign=bottom;labelBackgroundColor=none;endArrow=oval;endFill=0;endSize=8;rounded=0;exitX=0.5;exitY=1;exitDx=0;exitDy=0;exitPerimeter=0;" parent="1" edge="1">
          <mxGeometry width="160" relative="1" as="geometry">
            <mxPoint x="200" y="280" as="sourcePoint" />
            <mxPoint x="200" y="360" as="targetPoint" />
            <Array as="points" />
            <mxPoint as="offset" />
          </mxGeometry>
        </mxCell>
        <mxCell id="nwxM2-n29xhYYMJKdfmu-44" value="Modifica dati" style="edgeLabel;html=1;align=center;verticalAlign=middle;resizable=0;points=[];" parent="nwxM2-n29xhYYMJKdfmu-21" vertex="1" connectable="0">
          <mxGeometry x="0.395" relative="1" as="geometry">
            <mxPoint y="-16" as="offset" />
          </mxGeometry>
        </mxCell>
        <mxCell id="nwxM2-n29xhYYMJKdfmu-23" value="" style="html=1;verticalAlign=bottom;labelBackgroundColor=none;endArrow=oval;endFill=0;endSize=8;rounded=0;exitX=0;exitY=0;exitDx=0;exitDy=0;exitPerimeter=0;" parent="1" source="nwxM2-n29xhYYMJKdfmu-26" edge="1">
          <mxGeometry width="160" relative="1" as="geometry">
            <mxPoint x="170" y="200.00428571428563" as="sourcePoint" />
            <mxPoint x="70" y="200.28999999999996" as="targetPoint" />
            <Array as="points" />
          </mxGeometry>
        </mxCell>
        <mxCell id="nwxM2-n29xhYYMJKdfmu-47" value="Conferma&lt;div&gt;email&lt;/div&gt;" style="edgeLabel;html=1;align=center;verticalAlign=middle;resizable=0;points=[];" parent="nwxM2-n29xhYYMJKdfmu-23" vertex="1" connectable="0">
          <mxGeometry x="-0.4403" y="-4" relative="1" as="geometry">
            <mxPoint x="-15" y="4" as="offset" />
          </mxGeometry>
        </mxCell>
        <mxCell id="nwxM2-n29xhYYMJKdfmu-24" value="" style="html=1;verticalAlign=bottom;labelBackgroundColor=none;endArrow=oval;endFill=0;endSize=8;rounded=0;exitX=0;exitY=1;exitDx=0;exitDy=0;exitPerimeter=0;" parent="1" source="nwxM2-n29xhYYMJKdfmu-26" edge="1">
          <mxGeometry width="160" relative="1" as="geometry">
            <mxPoint x="170" y="275" as="sourcePoint" />
            <mxPoint x="70" y="280" as="targetPoint" />
            <Array as="points" />
          </mxGeometry>
        </mxCell>
        <mxCell id="nwxM2-n29xhYYMJKdfmu-46" value="Recupero&lt;div&gt;password&lt;/div&gt;" style="edgeLabel;html=1;align=center;verticalAlign=middle;resizable=0;points=[];" parent="nwxM2-n29xhYYMJKdfmu-24" vertex="1" connectable="0">
          <mxGeometry x="-0.2622" y="3" relative="1" as="geometry">
            <mxPoint x="-7" y="-3" as="offset" />
          </mxGeometry>
        </mxCell>
        <mxCell id="nwxM2-n29xhYYMJKdfmu-25" value="Gestore registrazione/autenticazione" style="html=1;outlineConnect=0;whiteSpace=wrap;shape=mxgraph.archimate3.application;appType=comp;archiType=square;" parent="1" vertex="1">
          <mxGeometry x="160" y="440" width="160" height="80" as="geometry" />
        </mxCell>
        <mxCell id="nwxM2-n29xhYYMJKdfmu-26" value="Gestore utente" style="html=1;outlineConnect=0;whiteSpace=wrap;shape=mxgraph.archimate3.application;appType=comp;archiType=square;" parent="1" vertex="1">
          <mxGeometry x="160" y="200" width="160" height="80" as="geometry" />
        </mxCell>
        <mxCell id="nwxM2-n29xhYYMJKdfmu-29" value="" style="html=1;verticalAlign=bottom;labelBackgroundColor=none;endArrow=halfCircle;endFill=0;endSize=2;rounded=0;" parent="1" edge="1">
          <mxGeometry width="160" relative="1" as="geometry">
            <mxPoint x="160" y="479.5" as="sourcePoint" />
            <mxPoint x="70" y="479.5" as="targetPoint" />
          </mxGeometry>
        </mxCell>
        <mxCell id="nwxM2-n29xhYYMJKdfmu-30" value="Google" style="edgeLabel;html=1;align=center;verticalAlign=middle;resizable=0;points=[];" parent="nwxM2-n29xhYYMJKdfmu-29" vertex="1" connectable="0">
          <mxGeometry x="0.4133" y="-3" relative="1" as="geometry">
            <mxPoint x="14" y="4" as="offset" />
          </mxGeometry>
        </mxCell>
        <mxCell id="nwxM2-n29xhYYMJKdfmu-31" value="Gestore database" style="html=1;outlineConnect=0;whiteSpace=wrap;shape=mxgraph.archimate3.application;appType=comp;archiType=square;" parent="1" vertex="1">
          <mxGeometry x="1160" y="200" width="160" height="80" as="geometry" />
        </mxCell>
        <mxCell id="nwxM2-n29xhYYMJKdfmu-32" value="" style="html=1;verticalAlign=bottom;labelBackgroundColor=none;endArrow=halfCircle;endFill=0;endSize=2;rounded=0;" parent="1" edge="1">
          <mxGeometry width="160" relative="1" as="geometry">
            <mxPoint x="1320" y="239.5" as="sourcePoint" />
            <mxPoint x="1410" y="239.5" as="targetPoint" />
          </mxGeometry>
        </mxCell>
        <mxCell id="nwxM2-n29xhYYMJKdfmu-33" value="Accesso&lt;div&gt;dati&lt;/div&gt;" style="edgeLabel;html=1;align=center;verticalAlign=middle;resizable=0;points=[];" parent="nwxM2-n29xhYYMJKdfmu-32" vertex="1" connectable="0">
          <mxGeometry x="0.4133" y="-3" relative="1" as="geometry">
            <mxPoint x="-24" y="-2" as="offset" />
          </mxGeometry>
        </mxCell>
        <mxCell id="nwxM2-n29xhYYMJKdfmu-34" value="Gestione gruppi" style="html=1;outlineConnect=0;whiteSpace=wrap;shape=mxgraph.archimate3.application;appType=comp;archiType=square;" parent="1" vertex="1">
          <mxGeometry x="520" y="40" width="160" height="80" as="geometry" />
        </mxCell>
        <mxCell id="nwxM2-n29xhYYMJKdfmu-35" value="" style="html=1;verticalAlign=bottom;labelBackgroundColor=none;endArrow=halfCircle;endFill=0;endSize=2;rounded=0;" parent="1" edge="1">
          <mxGeometry width="160" relative="1" as="geometry">
            <mxPoint x="520" y="40" as="sourcePoint" />
            <mxPoint x="520" y="-39.5" as="targetPoint" />
          </mxGeometry>
        </mxCell>
        <mxCell id="nwxM2-n29xhYYMJKdfmu-36" value="Visualizzazione&lt;div&gt;gruppi&lt;/div&gt;" style="edgeLabel;html=1;align=center;verticalAlign=middle;resizable=0;points=[];" parent="nwxM2-n29xhYYMJKdfmu-35" vertex="1" connectable="0">
          <mxGeometry x="0.4133" y="-3" relative="1" as="geometry">
            <mxPoint x="-3" y="16" as="offset" />
          </mxGeometry>
        </mxCell>
        <mxCell id="nwxM2-n29xhYYMJKdfmu-51" value="Gestore notifiche" style="html=1;outlineConnect=0;whiteSpace=wrap;shape=mxgraph.archimate3.application;appType=comp;archiType=square;" parent="1" vertex="1">
          <mxGeometry x="840" y="40" width="160" height="80" as="geometry" />
        </mxCell>
        <mxCell id="nwxM2-n29xhYYMJKdfmu-52" value="" style="html=1;verticalAlign=bottom;labelBackgroundColor=none;endArrow=halfCircle;endFill=0;endSize=2;rounded=0;" parent="1" edge="1">
          <mxGeometry width="160" relative="1" as="geometry">
            <mxPoint x="840" y="40" as="sourcePoint" />
            <mxPoint x="840" y="-39.5" as="targetPoint" />
          </mxGeometry>
        </mxCell>
        <mxCell id="nwxM2-n29xhYYMJKdfmu-53" value="Invio&lt;div&gt;notifiche&lt;/div&gt;" style="edgeLabel;html=1;align=center;verticalAlign=middle;resizable=0;points=[];" parent="nwxM2-n29xhYYMJKdfmu-52" vertex="1" connectable="0">
          <mxGeometry x="0.4133" y="-3" relative="1" as="geometry">
            <mxPoint x="-3" y="16" as="offset" />
          </mxGeometry>
        </mxCell>
        <mxCell id="nwxM2-n29xhYYMJKdfmu-54" value="" style="html=1;verticalAlign=bottom;labelBackgroundColor=none;endArrow=oval;endFill=0;endSize=8;rounded=0;exitX=1;exitY=0;exitDx=0;exitDy=0;exitPerimeter=0;" parent="1" edge="1">
          <mxGeometry width="160" relative="1" as="geometry">
            <mxPoint x="599.5" y="40" as="sourcePoint" />
            <mxPoint x="599.5" y="-40" as="targetPoint" />
          </mxGeometry>
        </mxCell>
        <mxCell id="nwxM2-n29xhYYMJKdfmu-55" value="Cambio&lt;div&gt;stato&lt;/div&gt;" style="edgeLabel;html=1;align=center;verticalAlign=middle;resizable=0;points=[];" parent="nwxM2-n29xhYYMJKdfmu-54" vertex="1" connectable="0">
          <mxGeometry x="0.105" y="-3" relative="1" as="geometry">
            <mxPoint x="-2" y="4" as="offset" />
          </mxGeometry>
        </mxCell>
        <mxCell id="RqjYrK4z8lz41ccaFmHQ-1" value="" style="html=1;verticalAlign=bottom;labelBackgroundColor=none;endArrow=halfCircle;endFill=0;endSize=2;rounded=0;exitX=0;exitY=0.5;exitDx=0;exitDy=0;exitPerimeter=0;" edge="1" parent="1">
          <mxGeometry width="160" relative="1" as="geometry">
            <mxPoint x="160" y="239.69" as="sourcePoint" />
            <mxPoint x="10" y="239.69" as="targetPoint" />
          </mxGeometry>
        </mxCell>
        <mxCell id="RqjYrK4z8lz41ccaFmHQ-2" value="Personalizzazione&lt;div&gt;notifiche&lt;/div&gt;" style="edgeLabel;html=1;align=center;verticalAlign=middle;resizable=0;points=[];" vertex="1" connectable="0" parent="RqjYrK4z8lz41ccaFmHQ-1">
          <mxGeometry x="-0.3306" relative="1" as="geometry">
            <mxPoint x="-20" as="offset" />
          </mxGeometry>
        </mxCell>
        <mxCell id="RqjYrK4z8lz41ccaFmHQ-3" value="" style="rounded=0;orthogonalLoop=1;jettySize=auto;html=1;endArrow=halfCircle;endFill=0;endSize=6;strokeWidth=2;sketch=0;fillColor=#e51400;strokeColor=#B20000;" edge="1" parent="1" source="RqjYrK4z8lz41ccaFmHQ-15">
          <mxGeometry relative="1" as="geometry">
            <mxPoint x="480" y="240" as="sourcePoint" />
            <mxPoint x="1090" y="239.78" as="targetPoint" />
            <Array as="points">
              <mxPoint x="1070" y="240" />
            </Array>
          </mxGeometry>
        </mxCell>
        <mxCell id="RqjYrK4z8lz41ccaFmHQ-4" value="" style="rounded=0;orthogonalLoop=1;jettySize=auto;html=1;endArrow=oval;endFill=0;sketch=0;sourcePerimeterSpacing=0;targetPerimeterSpacing=0;endSize=10;exitX=0;exitY=0.5;exitDx=0;exitDy=0;exitPerimeter=0;entryX=0.465;entryY=1.026;entryDx=0;entryDy=0;entryPerimeter=0;fillColor=#e51400;strokeColor=#B20000;curved=0;strokeWidth=2;" edge="1" target="RqjYrK4z8lz41ccaFmHQ-5" parent="1" source="nwxM2-n29xhYYMJKdfmu-31">
          <mxGeometry relative="1" as="geometry">
            <mxPoint x="1000" y="235" as="sourcePoint" />
          </mxGeometry>
        </mxCell>
        <mxCell id="RqjYrK4z8lz41ccaFmHQ-8" value="Dati" style="edgeLabel;html=1;align=center;verticalAlign=middle;resizable=0;points=[];" vertex="1" connectable="0" parent="RqjYrK4z8lz41ccaFmHQ-4">
          <mxGeometry x="-0.4555" relative="1" as="geometry">
            <mxPoint x="-32" y="-10" as="offset" />
          </mxGeometry>
        </mxCell>
        <mxCell id="RqjYrK4z8lz41ccaFmHQ-5" value="" style="ellipse;whiteSpace=wrap;html=1;align=center;aspect=fixed;fillColor=none;strokeColor=none;resizable=0;perimeter=centerPerimeter;rotatable=0;allowArrows=0;points=[];outlineConnect=1;" vertex="1" parent="1">
          <mxGeometry x="1090" y="235" width="10" height="10" as="geometry" />
        </mxCell>
        <mxCell id="RqjYrK4z8lz41ccaFmHQ-9" value="" style="endArrow=none;html=1;rounded=0;entryX=0.5;entryY=1;entryDx=0;entryDy=0;entryPerimeter=0;fillColor=#e51400;strokeColor=#B20000;strokeWidth=2;" edge="1" parent="1" source="RqjYrK4z8lz41ccaFmHQ-11" target="nwxM2-n29xhYYMJKdfmu-51">
          <mxGeometry width="50" height="50" relative="1" as="geometry">
            <mxPoint x="920" y="240" as="sourcePoint" />
            <mxPoint x="880" y="170" as="targetPoint" />
          </mxGeometry>
        </mxCell>
        <mxCell id="RqjYrK4z8lz41ccaFmHQ-12" value="" style="endArrow=none;html=1;rounded=0;entryX=0.5;entryY=1;entryDx=0;entryDy=0;entryPerimeter=0;fillColor=#e51400;strokeColor=#B20000;strokeWidth=2;" edge="1" parent="1" target="RqjYrK4z8lz41ccaFmHQ-11">
          <mxGeometry width="50" height="50" relative="1" as="geometry">
            <mxPoint x="920" y="240" as="sourcePoint" />
            <mxPoint x="920" y="120" as="targetPoint" />
          </mxGeometry>
        </mxCell>
        <mxCell id="RqjYrK4z8lz41ccaFmHQ-11" value="" style="ellipse;whiteSpace=wrap;html=1;aspect=fixed;fillColor=#B20000;fontColor=#ffffff;strokeColor=none;gradientColor=none;" vertex="1" parent="1">
          <mxGeometry x="915" y="235" width="10" height="10" as="geometry" />
        </mxCell>
        <mxCell id="RqjYrK4z8lz41ccaFmHQ-15" value="" style="ellipse;whiteSpace=wrap;html=1;aspect=fixed;fillColor=#B20000;fontColor=#ffffff;strokeColor=none;gradientColor=none;" vertex="1" parent="1">
          <mxGeometry x="595" y="235" width="10" height="10" as="geometry" />
        </mxCell>
        <mxCell id="RqjYrK4z8lz41ccaFmHQ-24" value="" style="endArrow=none;html=1;rounded=0;fillColor=#e51400;strokeColor=#B20000;strokeWidth=2;exitX=1;exitY=0.5;exitDx=0;exitDy=0;exitPerimeter=0;" edge="1" parent="1" source="nwxM2-n29xhYYMJKdfmu-26">
          <mxGeometry width="50" height="50" relative="1" as="geometry">
            <mxPoint x="520" y="280" as="sourcePoint" />
            <mxPoint x="600" y="240" as="targetPoint" />
          </mxGeometry>
        </mxCell>
        <mxCell id="RqjYrK4z8lz41ccaFmHQ-25" value="" style="endArrow=none;html=1;rounded=0;entryX=0.5;entryY=1;entryDx=0;entryDy=0;entryPerimeter=0;fillColor=#e51400;strokeColor=#B20000;strokeWidth=2;" edge="1" parent="1" target="nwxM2-n29xhYYMJKdfmu-34">
          <mxGeometry width="50" height="50" relative="1" as="geometry">
            <mxPoint x="600" y="240" as="sourcePoint" />
            <mxPoint x="650" y="160" as="targetPoint" />
          </mxGeometry>
        </mxCell>
      </root>
    </mxGraphModel>
  </diagram>
</mxfile>
